<?xml version="1.0" encoding="UTF-8"?>
<svg width="417px" height="136px" viewBox="0 0 417 136" version="1.1" xmlns="http://www.w3.org/2000/svg" xmlns:xlink="http://www.w3.org/1999/xlink">
    <!-- Generator: Sketch 59.1 (86144) - https://sketch.com -->
    <title>Uptoo</title>
    <desc>Created with Sketch.</desc>
    <g id="Page-1" stroke="none" stroke-width="1" fill="none" fill-rule="evenodd">
        <g id="Uptoo">
            <g id="Recrutement">
                <g id="Uptoo">
                    <path d="M229.664,90.548 L229.664,105.5 C223.839971,106.732006 218.96802,107.348 215.048,107.348 C205.415952,107.348 197.940027,104.940024 192.62,100.124 C187.299973,95.3079759 184.64,88.1400476 184.64,78.62 L184.64,38.3 L171.2,38.3 L171.2,23.012 L184.64,23.012 L184.64,4.5 L202.448,-2.84217094e-14 L202.448,23.012 L226.976,23.012 L226.976,38.3 L202.448,38.3 L202.448,77.108 C202.448,82.2600258 203.763987,85.9279891 206.396,88.112 C209.028013,90.2960109 213.143972,91.388 218.744,91.388 C220.64801,91.388 224.287973,91.1080028 229.664,90.548 Z M233.584,64.172 C233.359999,52.4119412 237.587957,42.2480428 246.268,33.68 C254.948043,25.1119572 265.223941,20.9399989 277.096,21.164 C289.08006,20.9399989 299.439956,25.1399569 308.176,33.764 C316.912044,42.3880431 321.168001,52.5239418 320.944,64.172 C321.168001,75.9320588 316.912044,86.1239569 308.176,94.748 C299.439956,103.372043 289.08006,107.572001 277.096,107.348 C265.223941,107.572001 254.948043,103.344043 246.268,94.664 C237.587957,85.9839566 233.359999,75.8200582 233.584,64.172 Z M302.8,64.34 C302.8,56.7239619 300.336025,50.312026 295.408,45.104 C290.479975,39.895974 284.432036,37.292 277.264,37.292 C269.983964,37.292 263.880025,39.895974 258.952,45.104 C254.023975,50.312026 251.56,56.7239619 251.56,64.34 C251.56,71.9560381 253.995976,78.3119745 258.868,83.408 C263.740024,88.5040255 269.815964,91.052 277.096,91.052 C284.376036,91.052 290.479975,88.4760258 295.408,83.324 C300.336025,78.1719742 302.8,71.8440375 302.8,64.34 Z M328.896,64.172 C328.671999,52.4119412 332.899957,42.2480428 341.58,33.68 C350.260043,25.1119572 360.535941,20.9399989 372.408,21.164 C384.39206,20.9399989 394.751956,25.1399569 403.488,33.764 C412.224044,42.3880431 416.480001,52.5239418 416.256,64.172 C416.480001,75.9320588 412.224044,86.1239569 403.488,94.748 C394.751956,103.372043 384.39206,107.572001 372.408,107.348 C360.535941,107.572001 350.260043,103.344043 341.58,94.664 C332.899957,85.9839566 328.671999,75.8200582 328.896,64.172 Z M398.112,64.34 C398.112,56.7239619 395.648025,50.312026 390.72,45.104 C385.791975,39.895974 379.744036,37.292 372.576,37.292 C365.295964,37.292 359.192025,39.895974 354.264,45.104 C349.335975,50.312026 346.872,56.7239619 346.872,64.34 C346.872,71.9560381 349.307976,78.3119745 354.18,83.408 C359.052024,88.5040255 365.127964,91.052 372.408,91.052 C379.688036,91.052 385.791975,88.4760258 390.72,83.324 C395.648025,78.1719742 398.112,71.8440375 398.112,64.34 Z" id="too" fill="#5585DA"></path>
                    <path d="M-1.27897692e-13,70.892 L-1.27897692e-13,49.5 L17.472,45 L17.472,72.236 C17.472,77.836028 19.2079826,82.3719826 22.68,85.844 C26.1520174,89.3160174 30.6319726,91.052 36.12,91.052 C41.3840263,91.052 45.7239829,89.3160174 49.14,85.844 C52.5560171,82.3719826 54.264,77.836028 54.264,72.236 L54.264,36 L71.904,31.5 L71.904,70.892 C71.904,81.7560543 68.5160339,90.5479664 61.74,97.268 C54.9639661,103.988034 46.4240515,107.348 36.12,107.348 C25.5919474,107.348 16.9400339,104.016033 10.164,97.352 C3.38796612,90.6879667 -1.27897692e-13,81.8680549 -1.27897692e-13,70.892 Z M167.28,64.172 C167.28,76.4920616 163.444038,86.7679588 155.772,95 C148.099962,103.232041 138.440058,107.348 126.792,107.348 C115.367943,107.348 106.184035,103.37204 99.24,95.42 L99.24,135.74 L81.6,135.74 L81.6,29.5 L98.064,25.5 L98.064,34.604 C104.336031,25.6439552 113.911936,21.164 126.792,21.164 C138.440058,21.164 148.099962,25.2799588 155.772,33.512 C163.444038,41.7440412 167.28,51.963939 167.28,64.172 Z M141.912,83.66 C146.728024,78.6199748 149.136,72.1800392 149.136,64.34 C149.136,56.4999608 146.728024,50.0320255 141.912,44.936 C137.095976,39.8399745 131.104036,37.292 123.936,37.292 C116.991965,37.292 111.112024,39.6439765 106.296,44.348 C101.479976,49.0520235 99.072,55.6599574 99.072,64.172 C99.072,72.7960431 101.479976,79.4599765 106.296,84.164 C111.112024,88.8680235 116.991965,91.22 123.936,91.22 C131.104036,91.22 137.095976,88.7000252 141.912,83.66 Z" id="up" fill="#283457"></path>
                </g>
            </g>
        </g>
    </g>
</svg>